<svg xmlns="http://www.w3.org/2000/svg" viewBox="0 0 2055.61 504.58"><title>allbirds</title><path d="M120,200.4c-3.6-2.9-12.6,9.2-9.2,12.4,3,2.9,3.7-3.2,4.1-3.7,1.1-1.7,1,2.5,2.9,2.9,4.2.9,5.1-6.3,8.5-3.8,1.6,1.2,1.2,4.3,3.1,4.8,4.5,1.3,7.6-4.5,9.9-3.2,1.2.7,1.3,2.1,2.1,2.9,3.4,3.7,8.3-1,12.5-.3,6.1,1,14.5,11.6,13.7,8s-7.6-9.4-12-10.8-10.3,2-12.2-.1c-1.2-1.3-1.6-2.9-2.9-3.5-2.7-1.2-8.5,4-9.9,2.5-2.1-2.2-.9-4-3.5-4.4-3.5-.6-6.2,3.6-7.6,2.5-2-1.5,2.1-4.9.5-6.2ZM144.9,235c2.4-1,3.2-4.7,2.7-6.2-1.2-3,8.7,2.4,9.6,2.5C162.8,232,152.9,235,144.9,235Zm8.6-7.5c-3.6-1.7-6.2-5.1-9.4-5.7-4.8-.8-8.4,2-12.5,3.6-1.5.6-4.7-.1-4.9,2.4,2,.2,3.7,1,5.4.4-.3,2,.5,3,1.1,4.4-1.9-.6-2.2-2.1-4.3-2.3,1.3,10.3,30.8,9.5,35.2,1.3-2.5-2.7-6.6-2.2-10.6-4.1Zm-44.3,73.9c.2-2.3,4.3-2.9,6.7-4.6,9.5-6.6,1.5-15-7.8-17.5,1.7-2.9,4.7-.4,6.7.4,4.7,1.9,9.7,3.7,12.9,7,4.5,4.6,4.9,13.5,9.4,18.8s10.3,6.6,14.4,12.6c.8,1.2,5.2,6.6,3.2,7.5s-2.7-4-4.9-6.1c-1.4-1.3-10.9-7.8-14.5-12-6.5-7.4-11.9-23.7-12.4-17.4-.7,7.2-6.4,11-13.7,11.3" transform="translate(-8.37 -14.42)"/><path d="M98.6,293.5c.6-1.8,4,1.3,3.7-1.2-.2-1.9-7.4,1.5-11,1.6-3.2.1,5.4-5.3,10.8-4.9,2.7.2,7.2,2,7.1,4.6-.3,3.8-12.3,4.7-10.6-.1Zm34.5,44.3c-9.6-1.3-22.5-4.8-33.3-2.3-2.6.6-5.6,2-8.7,1.4-2.8-.5-3.8-3.3-6.6-4.4-3.3-1.4-3.3.1-6.6-1.5,3.6-1.3,4.8-4,9.4-3.8,3.5.1,7,4.8,11.4,4.5,16.9-1.1,25.4,4.7,22.5.5-3.9-5.7-16.6-2.2-23.2-3.8-4.3-1-7.6-5.7-11.5-5-4.4.8-11.4,4.8-13.3,8.3,3,2.8,6.3.6,10.5,2.4,2.8,1.2,4.1,6.2,7.3,6.7s7.1-2.1,10.4-2.5c7.8-1.1,13.4-1.4,19.8-.7.7.1,3.7.6,4.4.7-4.6,1.9-11.4,8.8-14.5,9.4s-7.4-2.2-12.6-1.9c-5.4.3-9.1,3-11.8.7a21.31,21.31,0,0,1-4.8-7c-.6-1.2-2.4-1.6-1.5.9,1.1,3,.8,8,4.5,10.4,3.3,2.1,7.8-.1,12.4-.6,6-.6,13.5,2,16,0s12.7-9.7,16-10.7C130.8,339,135,338.1,133.1,337.8ZM111.6,372c-2.7.8-6.5-1.4-11-2.1-5.5-.9-8.4.3-12.1,1.6,3.7-9.7,20.2-6.6,23.1.5" transform="translate(-8.37 -14.42)"/><path d="M327.5,360.8c4.9-12.4,14-19.7,22.1-28,8.9-9.1,27.1-18.8,27.9-34.1.8-15.8-12.1-31.5-20-39.4-9-8.9-37-24.5-34.7-28.8,4.6-8.7,11.7-47.8,10.9-60.2-.5-7.4-7.2-19.3-9.9-26.1-2.9-7.3-.8-14.7-2.8-22-4.1-15.5-8.1-23.1-17.8-33-20-20.3-47.9-36.2-80.6-39.7-22.8-2.4-65.9,3.6-82,9C105.2,70.6,73.3,89.3,58.3,135a12.64,12.64,0,0,0,4.8,14.9c-5.3,18.8-9.4,37.7-13.4,57.8,1.5,1.1,2.2,4.5,2.6,6.7-11.8.3-20.8,5.2-23.4,13.2,1.2.7,3.2-1.1,4.3-.3-.2,16.6,8.5,22.1,23.2,24.4-.2,13-1.7,26.8-.8,41.2.6,10.8,3.5,23.4,5.4,36,1.7,11.1,2.2,18.4,4.2,29.9-15.1-1.5-41.9,6.2-51.7,12.1s-3.7,7.8,2.8,3.1c8.2-6,25.2-10.5,39.4-11,3-.1,10.5,2.2,11.5,1.9,3.1,17.3,8.2,33,20.1,40.9,1.9,1.2,9.9,5,13.4,5,4.7,0-2.2,10-.2,11.2,24.8,13.2,43.9,43.1,80.6,45.1,13.1.7,40.7-5.2,44.7-6.4,3.3-1-1.7,9.2-1.7,9.2-5.4,14.8-5.1,17.5,1,6.6,5.7-10.3,20.3-46.8,11.2-42.1-5.9,3-7.6,2.5-2.5-4.8,1.7-2.4,7.4-11.9,10.2-36,2.8-23.6.8-40.1,12.6-55.3,3.2-4.2,13.4-23.9,13.4-31.3,3.4-3.3,6.6-4.3,8.8-9.9,5.8-14.3,27-29.2,28.7-44.9,1.4-13.1-4.3-24.2-11.8-27.7-6.4-3-14.3-.2-19.2,1.9a40.2,40.2,0,0,0-4.7,2.2c-6,9-16.3,6.5-16.1,8.5,2.5,23.7-4.5,10.9-5.1,14.6-1.7,9.6-5.3,24.8-5.3,19.3,0-4.3,1.6-17.1-1.3-17.9-3.3-.9-8.1,5.4-9.4,7.4-2.1,3.3-4.7,8.8-4.9,5.4-.5-7.9,7.8-21.9,6.9-26.8-.5-2.8,2.2-3.7,5.5-4s7.3-1.2,8.7-3.8c-6-1-10.3-1-15.7-1.5.3-6.6,2.5-13.7,2.2-21.2-.2-5.1-20.3-21.7-18.2-29.2.8-3,12.7-12.5,6.2-13.1-22.2-2.1-45.7-6-62.8-16.3-8.8-5.2-20.3-15.6-22.8-18-3.5-3.2-15.9-9.7-14.8-13.4,1.6-5.5,11.4-14.5,9.4-19.2-4.6-10.8,6.8-10.4,11-11.7,1.7-.5,11.5-5.8,9.4-6.8-1.8-.9-9.5,1-13.8,2.8-3.5,1.4-13,5-12.1,8.5,3.6,13.3-7.6,27.1-13.6,27.3-10.1.4-18.6,2.6-30.2,6s-17.8,11-17.2,6c.3-2.6,13.4-37.8,43.7-53.1,23.8-12,48-19.7,69.9-22.3,14.8-1.7,42.4,1,57.1,4.6,36.6,9.1,69,28.9,77.5,66.8,1.5,6.5-.8,19.7,1.8,26,3.3,8,11.4,12,10.1,23.2-2.3,19.3-5,46.5-11.9,54.5-10.4,12,1.9,7.9,4.1,8.8,7.3,2.9,36.5,22.2,45.2,34,4.8,6.5,10,22,.5,34.5-7.3,9.7-23.1,23.5-32,32.3-15.1,14.9-18.1,36.6-18.8,50.8-1.3,27.3,36,76.9,19.4,42.5-3.1-6.4-9.4-17.8-11.2-25-4.5-17.8-3.2-38.3,1.3-37.3,11.4,2.5,31.3,3.6,48.2,5.7,22,1,5.3-3.6-4.3-4.9C347.5,369.4,325.3,366.6,327.5,360.8ZM56.8,207.9c-1.5-3.4,3.7,2.1,5.7,1.4.6-.2-.5-1.1.5-2.3.6-.6,3.1.7,7.2,2.4a47.89,47.89,0,0,0-7.6,1c-1.5.3-4.7.4-4.3,2.3,10.1-1.4,34.1-7.6,28.2,10.6-7.6-6.6-17.5-8.6-31.7-9a12.28,12.28,0,0,1-.8-3.8c-.1-1.8,1.1-.4,2.8,0C57.5,210.7,57.4,209.4,56.8,207.9Zm16.6-1.1c1.2-1.2,2.1,1.5,3.5,1.1s.1-1.6,1-1.7c1.6-.1.9.5,2.5,2.9-2.1.2-4.1-.3-7.6.1C73.7,208.6,72,208.2,73.4,206.8Zm-14,23.9c.6-1,2.3,2.1,3.7,2.2,7.1,1.2,15.2-2.7,20.1-4.6l1.3-.6c-2.2,11.5-10.2,18.3-24.3,20.1A109.39,109.39,0,0,0,59.4,230.7Zm11.4-7.9c4.4.1,9.8-.5,11.7,2.1-4.3,3.4-12.6,4.7-11.9,4.3C71.5,228.5,73.2,225.1,70.8,222.8Zm-12.1-2.3c.3,2.1,4.9,2,4.3,2.5a4.06,4.06,0,0,0-1.1,3.5,3.22,3.22,0,0,0,1.2,2.6c.6.5-1.9-.5-2.8-.8-1.5-4.1-3.7-6-4.7-10.6,8.8-.2,15.2.4,21.6,2.6C71.7,220.8,63.6,218.5,58.7,220.5Zm-1.9,27.1c-14.9-1-21.2-5.5-21.3-20.8,6.6-.5,19.3-1.6,18.3-5.4-.4-1.5-6.1-.2-8.5.3-3.2.7-6.5.4-9.7,1.1.7-2.4,2.6-3.1,5-4.1,3.9-1.6,7.6-1.2,12.9-1C57.7,226.3,57.3,234.4,56.8,247.6Zm170.5,7.5h0c-2,6.7-2.5,15.8.1,18.7,7.6,0,6.5-8.9,12.9-10,.6,8.2-.1,15.3-.9,23.9-.3,3.4-.1,7.5,1.7,9.6,2.1-6.8,5.6-11.7,7.1-18.2,1.3-5.8,4.1-23.3,7.7-20.5,3.8,3.1,5.5-9.8,3.5-17.7-.5-2.1,9.7-.4,13.2-7.3,7.3-2.1,12.1-9.4,21.2-6.1,7.7,2.8,11.8,12.4,10.8,23.5-1.3,15-18.3,26.4-27.1,37.5-3.6,4.6-4.9,10.7-8.2,14.9-7.1,8.8-22.9,4-21.4-6.5.5-3.7,2.2-4.3,3.9-7.5-3.1,0-6.4,3.2-7,6.1a12,12,0,0,0-.1,5c-7.3,12.7-16.1,32.3-24.2,45.4-2.2,3.6-8.3,13.2-8.6,16.4-.1,1.5.3,4.4,1.6-.4,10.3-11,18.3-28,25.1-42,2.1-4.4,9-7.3,11.1-11.9,3.1,2.1,4.7,4.5,8.8,3.8,2.5-.4,1.5,7.7-2.6,15.3a154.85,154.85,0,0,0-17.8,60.2c-2,21.2-3.3,35.1-14.5,47.1-3.4,3.6-4.1,12.6,5.7,7.8,4.3-2.1,2.1,9.5-1,11.8-2.3,1.8-9.7,3.9-11.7,4.2a171.79,171.79,0,0,1-29,2.7c-40.4-.8-57.8-25.7-83.4-39.9-3.2-2.3,4.4-9.6,6.9-9.6,17.5,0,36.7-4,45.4-10.9,2.2-1.7,4-6.3,3-9.4-2.4,2.4-3.1,4.7-5.5,6.5-12.3,9.5-47.4,14.8-64.1,4.2-12.7-8-17.9-30.5-21.6-51.7-3.7-21.6-8.7-42.1-9.6-61-.6-13.4,1.2-26,1.4-37.5,11.9-.7,20.1-9.2,21.5-10.7,2.5-2.6-2.1,13.1-5.4,21.7-3.2,8-8.3,17.5-7.6,26.6.6,7.5,11.1,11.3,12.9,11.6,4.4.6-5,9.3-2.1,9.6,3.3.2,5.7-4.6,6.7-7.4.7-2,2.8-.9,4.8-.2s7.9,1.2,5.9,0c-10.7-6.3-26-3.6-24.2-20.1.9-8.7,6.6-16.6,9.2-26.7,2.8-10.6,3.2-21.1,6.4-29,3.8-.2,8.4-1.8,12.5-1.5a12,12,0,0,1,5.3,2.3,12.51,12.51,0,0,0-2.5,10.2c2.2,12.3,19,21.2,35,21.8,15.6.7,30.5-6.5,30.3-22.1,17.4,7.2,43.3-.2,61.5-2.7C232.2,240.4,229.3,248.5,227.3,255.1ZM110.5,225.5c4.2-2.8,10.7-3.9,18.2-4.5,14.9-1,43.9,2.1,36.3,22.4-5.8,15.3-35.6,15.3-50,4.7-4.4-3.4-10.1-9.6-9.1-15.7,2.1,2,3.4,5.1,6.7,4.2C114.8,236,110.3,230.5,110.5,225.5ZM68.6,140.6c7.4-9,48.8-18.7,55.1-12.3,43.3,43.8,85.3,39.6,94.1,43.8,3.9,1.9-8.9,6.9-4.2,13.6,4,5.6,15.6,18.3,16.7,23.3,1.7,8.2.9,14.2-.9,23.3-18.7,2.1-44.5,8.2-61.1-.1-2.1-9-18.1-14.9-33.7-14.8-10.7.1-19.8,1.4-25.5,6.9a17.4,17.4,0,0,1-3.3-1.8c-3.7-2.5-12.2.4-17.4,1,.2-3.8.8-5.5-.4-8.3a27.18,27.18,0,0,0-3.7-5.8c-2.5-3.4-4.8-9.7-9-9.2-1.3.2-.7,2.4-1.9,2.9-1.4.6-3.6-2.4-4-.6-.1.6.2,2.3-.4,2.6-1.5.7-5.8-1.9-9.1-2.4-1.7-.2-.3,3.1-.8,2.8-1.3-.7-4-.2-5.2-1,2.4-16.6,8-33.9,11.4-49.3.3-1.5,1.2-3.7.7-5.3C67.3,148.2,67.6,143,68.6,140.6Z" transform="translate(-8.37 -14.42)"/><path d="M265.9,282.9l-1.5-1.5c-1.7-4.4-.5-15.7,3.8-20.1a5.32,5.32,0,0,1,5.7-1.4l.4.1.1.4a10.15,10.15,0,0,1,0,4.9l-.2.5h-.6l-1.3.1a21.75,21.75,0,0,1-5.1,0c-1.5,4.6.5,8.2,1.4,11.6,4.3-2,13.6-9.8,15.1-13.1,2.4-5.3,3.8-12.1.7-15.8-1.8-2.2-2.7-3.9-5.8-3.3l-1.8-.7c3.7-.6,8.3-.1,10.5,2.5,3.9,4.7,2.2,13.4-.2,18.6-1.8,4-16.9,15.9-20.6,16.9ZM174.3,498.4c-23.3,0-39-14.4-55.5-30.4-2.5-2.4-20.2-17.3-15.8-18.8s21.8,19.6,25.7,23c14.6,12.8,29.4,16.9,48.5,16.6,5.5-.1,28.2-4.4,27.8.2-.4,3.6-27.4,9.4-30.7,9.4Z" transform="translate(-8.37 -14.42)"/><path d="M1903.1,183.9c2-4-5.7-11.6-10-9.9-1.2.5.5,2.8-.5,3.5-3.6,2.6-8.2-8.8-11.1-4.6-.5.8-.4,1.7-1.2,2.2-2.3,1.3-9.2-7-12.2-2.9-.8,1.1.2,2.4-.6,3.5-3.2,4.6-19.4-9.3-20.1-1.8-.1,1.1,0,1-.1,2.2-.6,5.5-19.1,1-16.4,8.5,1.3,3.8,6.4-2.7,10.6-3.9,4-1.1,8.5.7,10-2,.6-1.1-1.3-2.6-.8-3.7,1.7-4.4,16.2,10,20.5,3.5,1-1.5-1.3-1.9-.5-3.4,2.7-4.7,11.8,9.8,14.6,4.6.7-1.4-.4-1.9.7-2.1,2.2-.5,5.7,8.6,10,5.3,1.8-1.3-.2-5.6.9-3.7,1.2,2.1,5.2,6.8,6.2,4.7Zm40.1,3c-1.3-1.1,1.1-4.3-.5-3.9-3.4.8-4.6,6.7-2.6,9.6,1.2,1.9,6.4-5.1,6.2-3.2-.3,2.2-1.5,3.3.8,4.7,2,1.1,6.9-.6,10.6-.9,8.5-.6,15.9,9.7,15,5.9-.4-1.9-5.8-12.3-14.2-7.9-2.1,1-3.2-2.5-5.7-3.3-.5-.2-2.8,2.6-3.4,1.7-1.5-2.4,2.1-3.5,1.3-6.2-.9-3.4-5.9,4.8-7.5,3.5Z" transform="translate(-8.37 -14.42)"/><path d="M1884.5,199.7c-5.7-2.3-3.2-4-3.2-9.6,4.2,2.8,1.6,5.1,3.2,9.6C1883,199.2,1883.8,197.8,1884.5,199.7Zm-33.2-5.3c3.9-2.6,11.7-7.3,16.2-7.7-1.9,1.7-2.3,9.7.4,10.9-5.9.9-11-1.5-16.6-3.2,4.9-3.2,5.5,1.6,0,0Zm44.9,7.3c-8.5-7.9-13.2-17.5-26.1-18-2.3-.1-30.7,8.5-28.4,13.1-1-2,19.4,4.7,21.1,5,4.6.4,11.8-1.3,17.6,0,3.8.8,5.3,3,10,2.3-.5-3.5-4.3-6.9-5.3-11.1,2.2,1.9,9.4,11.9,12.8,11.1a2.21,2.21,0,0,0-1.7-2.4c-6.5-5.9.5.6,0,0Zm29.1-7.4c6.2,9.9,5.4,25.9,7.9,37.7,3.5,15.7,16.5,22.7,6.8,37-8.8,13.1-20.8,13.4-33.7,2.3-3.5-3-1.2-3.5-4.7-5.7-2.8-1.8-8.4.4-11.7-1.1-2.5-1.2-5.5-6.6-10.3-11.5-1.5-1.5-1.8-4.3.9-5.1,2.1,2,2.9,4.7,4.7,7,2.5,3,4.5,3.7,8.6,5.6,7.6,3.4,30.1,0,24.6,11.2-1.3,2.6-5.8-2.4-9.4-3.3,0,3.5,14,9.6,19.4,7.7,6-2,12.6-13.1,12.2-17.8-.7-8.6-9.2-15.7-10.9-25-2.2-10.7-4.5-28-4.4-39" transform="translate(-8.37 -14.42)"/><path d="M1903.8,245.6c-2.7-1.1-5.3-4.7-7.8-5.6,5.1-1.3,14.1,1.4,10.9,5.8-.6.6-2.3.2-3.1-.2Zm36.7,61.5c-1.1-2-3.7-6.5-4.4-7-3.4-2.4-17.2-2-19.4-3.1-2.7-1.3-18.8-6.9-26.2-7.7-1.1-.1-14.8.7-13.4,1.3.6.3,15.3.2,16.3.6,6,2.7,18,7,21.9,7.9,4.9,1.1,12.3.3,17.1,1.5,3.4.9,6.3,5.6,4.1,4.9s-7.6-3.6-11.5-3.1c-12,1.4-18.4-3.3-29.7-7-4.2-1.3-47.3-7.9-45.6,2.7,14.4,12.1,35.6,34.2,55,33.7,9.7-.2,16.9-.6,23.3-7.8,3.8-4.3,10-14.2,12.6-14,3.4.2,2.6-1.2-.1-2.9Zm-23.7,18.3c-18.6,3.7-45.4-8.5-61.9-27.5-2.8-3.2,33-3.5,36.2-2.5,6.5,2.2,11.9,7.4,18.5,9.3,9.4,2.6,18.6-3.2,26.9,3.5C1931.4,314.1,1925.3,323.7,1916.8,325.4Z" transform="translate(-8.37 -14.42)"/><path d="M1931.9,325.3c.6-5.4-6.6,13.3-10.7,15.7-5.1,3.1-8.7-2.3-13.7-2.9-4.6-.6-12.1,2-15.9.6-6.1-2.4-10.7-8.9-16.4-12.6-5.5-4.4-7.3-3.5-.7,1.3,5,3.3,8.9,12.3,13.9,15,4.9,2.5,9.1-.6,14.7,0,4.6.6,13.3,5.5,18,3.9,3.7-1.2,10.2-16.1,10.8-21Z" transform="translate(-8.37 -14.42)"/><path d="M1933.3,395.9c0,17.1-14.6,27.9-21.9,42.3-7.4,14.8-7.7,22.8-22.5,30.1-12.5,6.2-35.9,18.2-50.2,16-10.6-1.7-22.1-17.1-29.3-24.1a152.59,152.59,0,0,1-26-33.2c-7.7-13.7-4.2-28.4-5.6-43.8-2-22-9.6-60.2-14.2-81.7-3-13.8-3.8-20.1,1.8-12.8,3.8,5-1,59.6,35,67.6-6.3-9.3-15.4-13-20.4-23.6a137.76,137.76,0,0,1-9.4-28.7c-1.9-8.4,1.8-34.7-3.9-38.9-2.6,5.5-.1,13.3-.4,19-6.7-7.3-4-11.8-14.8-13.8-5.8-1.1-7.9.2-12.8-4-7.7-6.7-9.5-23.1-9.7-32.2-.2-7.6.2-28.6,10-31.5,9.3-2.7,10,11.7,19,7.3-.1,4.2-.4,12,1.7,15.8.7,1.2,0,3.8.9,5.1.7,1,5.1-.1,4.9-.3,1.8,2.5,3.5,18.1,7.7,19.5,6.5,2.3,10.5-58.7,12.4-66.9,3.8-17,9.1-10.9,21.8-18.3,8.8-5.1,20.1-19.6,20.6-28.6.4-6.7-7.7-2.7-2.7-10.7,2.1-3.3,9.1-2.4,11.2-5.8s-.4-8.3,1.7-11.9c2.9-5.1,8.4-6.4,13.6-7.4,10.7-2,21.8,1,32.5,1.5,13.4.8,25.3-3.2,38,2.5,10,4.5,25.4,11.7,32.8,20,7.6,8.7,10.9,25.3,13.2,36.4,1.4,7.1-.4,14.9,1.2,21.9,1.4,5.9,5.5,9.5,6.1,15.7,1.8,16.1-8.3,31.2-5.8,48.2,4.9,33,2.8,54.8-14,84.4-7.5,13.2-23.4,26.8-29.7,40.6-6,12.9-3,26.8-18.7,32.7-12.7,4.6-18.7-3.3-33.7-5.4-8.4-1.1-20.2-4.3-25-11.5-2.4-3.6-10.4-24.4-9.9-20.1,1.4,10.9,5.9,22.1,14,29.1,7.6,6.4,20.2,7.9,29.7,10.6-2.6,15.7-19.4,9.7-31.1,29.2-1,1.8,8.9-6.5,15.1-10.3,3.3-2,9.4-5.7,12.7-7.5,4.6-2.6,7-9.2,10.2-9.5,8.9-.9,15.7,1.8,24.1-3.9,7.8-5.3,12-15.6,14.6-24.3,3.6,2.5,4.9,11.2,4.9,15.1.3,5.6.3-5.6.3.1Zm-198.4-215c.8-4.6.6-12,.5-17.1-.2-10.4-4.7-16.8,2.8-23.2,1.7-1.3,10-2.4,10.4-5.9.8-6.5,8-19.9,10.9-22.9,3.8-3.9,2.4-8.4,4.1-13.3,7.2-20.6,37-16.8,55.6-22.6,8.3-2.6,9.3-13.1,16.9-16,7.4-2.8,16.8-.3,24.9-3.2,12.5-4.4,16.9-2.6,29.9-.1,4.9.9,8.3-.1,11.9,3.3,5,4.6,1,7.6,8.4,10.3,3.8,1.4,9.6-3.6,14-2.4s7.3,6.7,10.3,9.7c6.8,6.6,11.5,12.6,17.2,19.6s13.2,10.6,17.3,18.9c3.6,7.2,8.7,19.6,9.4,27.5,1,10.8-5.2,21.1-1.2,31.8,1.7,4.7,3.6,5.6,3.4,11.1-.2,4.6-3.2,10.8-4,6.3-1-5.4-3-5.3-4.7-11.4-1.8-6.3-.1-17.2-1-23.6-1.5-10-7.1-22-10.9-31.7-6.4-15.9-38.3-29.6-54.6-29.9-13.3-.3-26,1.3-39.5.6-8.9-.4-27.7-3.1-34.3,4.6-3.9,4.5,3.8,11.2,1.1,16.1-2,3.6-10.7,3.1-12.9,6.2-6.6,9.1,3.9,10-.6,20.1-8.9,19.7-33.4,16.8-38.9,36.1-3.5,12.5-2,27.3-2.8,40.2-.2,3.4-.8,11.9-3.7,14.8-2.2,2.2-3.4-4.6-5-7.1-3.8-6.2-6,2.2-8.7-7.7-.3-1.3.6-13.6,0-14.6-2.4-3.2-5.9,3.1-9.9-1.9-5.6-6.8-7.4-11.5-15.1-5.3-3,2.4-7.1-2-5.6-5.9a40.46,40.46,0,0,0,4.4-11.4Zm243.2,221.7c-12.9-7-30.5-13.7-42.3-22.4-7-5.2-6.6,1-5.1-8.6.4-2.8,5.6-8.5,6.9-10.2,6.2-8.3,13.2-15.7,18.5-24.7,9.4-15.9,16.6-34.5,18.7-52.9,2.8-24.1-4.2-45,1.9-69.2,2.2-8.7,6-16.2,8-24.1,2.1-8.4-.2-9-2.9-16.1-3.4-8.9,2.6-20.3,3.2-29.2.6-9.9-5.2-14.7-8.4-23.3-3.7-9.8-4.7-10-12.5-17.8-4.1-4.1-6.5-9.2-9.7-13.6-5.4-7.4-10.5-16.3-18.6-22.3-9.3-6.9-12.3-.8-21.4-3.8-6.4-2.2-7-9.2-12.5-13-4.6-3.3-15.2,1.1-20.6.4-10-1.3-12.2-3.5-21.4-.5-7.8,2.6-18.1,1-25.6,3.3-8.3,2.6-8.6,10.4-15.8,14-5.4,2.7-17.9-.5-24.6,1.4-8.2,2.4-13.5,9.7-21.4,13.1-9.4,4-9.1,6-12.1,14-3.4,9.2-3.8,8.9-11.6,16.5-5.1,5-4.3,7.5-6.6,12.5-1.2,2.7,0,3.9-1.9,6.9-1.5,2.5-6.2,2.4-7.9,4.9-4.1,5.8-1.8,15.8-2.3,23s1,15.2-.1,21.7c-1.2,6.9-5.7,5.9-3.9,14.4.6,2.8,2.8,5.5,3.1,8.2.5,4.6-2.5,9.1-3.4,14.2a75.09,75.09,0,0,0-.6,16.4c.5,7.4,1.7,15.7,4.3,22.7,5,13,13.4,10.5,21.5,19.1,10.2,10.9,10.2,39.8,13.1,53.7,4.6,23.1,11.1,50.8,7.9,74.2a49.07,49.07,0,0,1-9.5,22.1c-6,8.2-26.9,18.7-18.9,15.7,5.1-1.8,11.8-.8,15.8-4.2,5-3.8,14.3-4.9,16.4-1.1,4.1,7.5,27.6,24.5,29,25.9,11,11.2,25,28.9,41.7,25,15.3-3.6,42.2-11.6,53.9-21.4,10.7-9.1,14.9-27.7,23.5-39.7,5.4-7.5,11.8-14.8,13.5-24.4,1.4-8.3,1-6.9.5-14.6,19.7,11.1,32.6,13.9,49.7,29.2,18.1,16.2,41.9,30.4,72.7,29.3,18.1-.6-35.8-7.4-50.9-18-10.7-7.8-23.4-22.4-31.3-26.7Z" transform="translate(-8.37 -14.42)"/><path d="M1960.8,216.1c-.5-.2-2.6-.8-2-1.2,2-1.2.2-4.3,1.9-2,1,1.4,1.9,3.9.1,3.2Zm-23.7-6.1c.8-3.5,10.1-1.9,12-1.9a5.93,5.93,0,0,0,.8,5C1945,213.1,1941,210.6,1937.1,210Zm32.9,2.4c-.4-4.3-13.1-8.6-16.6-9.8-7.7-2.6-19.6-5.4-21.1,2.8-.4,2.4,2.4-6.8,17.3-.2,2.6,1.1-16.8-1.3-16,5.5.5-.4,9.5,4.9,17.9,7,6.4,1.7,12.5,1.3,13.4,1.9.5-4.3-6.4-12.3-2.8-10.6,2.8,1.2,6.3,1.1,5.6,11a8,8,0,0,0,2.3-7.6c-.5-5.2.2,2.1,0,0Zm-229.6,40.5c-.4-5.1,3.8-6,6.1-9.6.8-1.2,5.1-8.2,5.8-8.7,2.6.7,1,17.1,0,18.2-2.1-.2-1.5-6.1-1.7-7.2-5.2,2-11.2,5.9-4.9,11.6,1.9,1.7,7.4,2,9.2.8,3.4-2.1,1.4-8.4.9-13.1-.8-8.2-.8-17.5-7.1-23.5-4.7-4.4-10.8-2.9-11-9.2,20.8,6.5,24.5,27.9,20.7,46-1.3,5.9-17.4,3.4-18-5.3ZM1848.5,519c-8.5,0-61.9-39.8-61.1-41,4.5-6.4,40.9,26.1,49.2,27.5,10.5,1.7,26.9.4,35.5-5.2,3.3-2.2,33.1-23.9,34.9-21.2C1912,486.6,1856.2,519,1848.5,519Z" transform="translate(-8.37 -14.42)"/><path d="M598.7,278.6c-9.9-6.5-3.8,6.4-3.4,4.8a5.42,5.42,0,0,1,1.5-2.9c2.3-2,7.3,7.1,5.7,12.8-.7,2.2-3.5,4.6-5.5,3.3-.7-.5-.2-1.6-1.2-2.1-2-1-6.5,8.3-9.1,9.6-4.9,2.3-7.8.9-12.3-1.2-.9-.4-20.7-11-19-2,.3,1.6,11,.3,13,.8,5.3,1.4,7.4,6.5,13.8,6.5,6.2,0,12.4-9.2,14.4-9.5,12.1-1.5,10-14.8,2.1-20.1Zm-12.8-20.9c-1.5,0-4.1-17.3-4.2-19.5-.1-2.6,5.2-23.1,10-18.4-.3-.3-7.2,14.6-7.2,18-.2,2.5,5.1,19.9,1.4,19.9Z" transform="translate(-8.37 -14.42)"/><path d="M585.5,219.5c-3.4,0-2-5.3-1.3-6.8,1.3-2.7,5.9-5.8,9.5-6,4.7-.4,3.4,5.8,6.3,3.2,2.4-2.1,1.7-7.9,9.7-3.5,5.8,3.1,5.3-4.4,13.2-4.8,1.8-.1,12.5,2.4,12.2,4.7-.1.5-9.6-1.6-10.5-1.3-8,1.9-9.8,8.3-18.2,5.4-2.3-.9-7.1,6.7-10.3,3-.7-.8-2.1,3.1-3.4,3-2-.1,1.4-3.8-2.1-4.4-3.8-.6-2,7.5-5.1,7.5Zm-36.7,4.6c-3.6,0,1.1-5.3-.3-4.6-12.5,6.2-6.4-7.1-13.8-1.4-4.3,3.3-3.6-2.8-15.2-5.7a124.42,124.42,0,0,0-21-3.5c-3.3-.1-17.8,5.5-17.3,5.9-4.4-3.8,12.4-10.6,14.3-10.8,5.5-.4,14.6,4,20.1,4.4,10.7.8,10-1.2,16.7,4.3,2.9,2.4,3.7-7.2,8.1-4.6,2.9,1.8.9,6.9,3.6,7.7,2,.6,14.3-12.9,9.8,1.9-.5.9-2.9,6.4-5,6.4Z" transform="translate(-8.37 -14.42)"/><path d="M664,196.8c3.1-7.5,3.8-17.5,2.9-25.6-2-16.6-10.1-30.1-16.5-45.3-2.9-6.8-1.8-15.4-6.5-21.2-3.4-4.1-12.8-5.8-14.8-10.5-3.6-8.3,3.1-14.9-5-22.9-5.6-5.6-21.2-5.4-27.8-3.1a82.59,82.59,0,0,0,.6-11.1c-.6-8.7-3.7-15.6-10.9-20.8a55.28,55.28,0,0,0-44.4-9c-36,8.2-64.1,34.9-91.6,57.7-30.4,25.2-52.8,50.2-60,90.1-2.9,16.4-8.1,24.8-12,40.2-1.8,7.1,4.1,20.6,6.7,27.4,2.2,5.8,19.8,18.2,29.3,18.4,4,.1-6.2-9.8-6.6-10.5-2.7-4.6-4.5-10.4-3.4-15.8,2.7-13.3,7.7-14.4,18.6-18.5,6.9-2.5,14.8-2.7,18.6-1.3,3,1.2,1.4,2.1.7,8.5-6.1,7.3-22.1,11.3-18.5,15.5,6.2,7.2-3.6,27,5.3,30.3,3.8,1.4-4,2.5-3.1,7.4.3,1.4,4.4,5.2,4.6,6.2,0,.1.4.4-1.8,2.2-1.2,1.1-2.3-.8-2.7-2-1.5-4.5-3-7.1-3.4-8.8-1.8-7.5-2-15.7-2.9-23.4-.7-5.3-3.4-14.3-1.1-19.7,1.1-2.5,5.3-4.4,5.3-5.3,0-5.7-8.4-1.2-9.1.3-2.5,5.6.9,16.4,1.7,22.1s2.2,43.1,11.9,43.1c1.1-.1,2.1-.3,3.2-.5a20.58,20.58,0,0,0,.3,2.1c.7,4.1,4.1,14.1,5.1,18.4,3.3,14.4,13.1,18.3,23.5,19.4,6.2,12.8,14.8,23.2,26.4,33.1,6,5.1,33.9,26.8,40.5,29.1a43.73,43.73,0,0,0,4.8,11.6c7.3,13.1,20.2,24.6,36,24.6,29.7,0,61.2-28.4,48.9-58.3-.5-1.1-2.7-9-1.4-10.1,8.7-7.2,14.7-22.4,17.1-27.7a132.86,132.86,0,0,0,5.8-17.5h.7c10.5,0,17.1-33.6,16.8-39.6-.2-3.7-8.5-41.2-5.6-48.9C652.5,221.1,662.3,200.9,664,196.8ZM454.7,324.7h0c-4.7-1.5-9.5-7.1-10.5-8.5-3.6-4.2-8.4-18.3-9-23.5-.5-4.1-.1-7.9-.7-11.4-.3-1.7-3.2-1.3-3.1-4.1.2-6.8,12.4-12.1-1.5-11.7.4-1.8,4.6-14-1.5-22.3-4.6-6.3,12.8-15.5,11.7-4.8-1.6,16.5-.7,20.6-.5,22.7,2.1,19.3,8.9,39.1,15.2,57.4C456,321.9,458.1,325.6,454.7,324.7Zm159.5,70.6h0c-7.5,17.2-20.2,26.8-40,29.6-17.3,2.3-30.8-7.2-38.9-22-5.3-9.6-7.5-17.1.5-26a226.82,226.82,0,0,0,17.4-21.3c2.2-3.1,11-2.1,16.1-1.6,3.6.3,13.7,4.8,13.9-1.5,3,1.3,16,7.6,20.9.9C607,349.1,620.2,381.5,614.2,395.3Zm36.3-118.4c.3,7.4-3,20.9-5.9,27.8-.4.8-3,3.3-5.2,5.8a130.35,130.35,0,0,0,2.5-15c3.3-25.8,1.8-52,1.1-77.9-.7-28.3-3.6-56.2-15-82.4-4-9.2-6.5-21.7-12.9-29.5-1.9-2.3-24.2-15.9-24.2-8.7,0-1.6,19.6,12.5,21.9,15.7,5.3,7.3,8,17.5,11.5,25.7,11.6,26.8,14,53.1,14.6,81.9.7,25.7,2.5,51.6-1.1,77.1-1.9,13.3-4.2,26.5-9.9,38.6-2,4.1-7.6,19.2-12.7,19.5-5.9.4-7.8-6.9-12.6-7.4-5.7-.6-.8,3.4-3.9,3.8-7.1.9-11.3-3.1-17.1-4.6-2.7-.7-2.4,4.8-3,4.9-6.4.9-18.7-4.6-26.8.6-5.4,3.4-4.7,8.4-11.2,13.5-9.8,7.7-13.4,11.6-14.4,18.1-.9,5.3-13.7-4-14.9-4.8-7.9-5.5-14.8-12.9-22.2-19.1-13.7-11.6-22.7-22.5-28.9-39.3-6.9-19-15-39.9-17.1-60.1-.6-5.3,5.6-51.1,6.8-53.4S482.7,197,496,184.6c21.3-19.7,24.6-50.1,38.7-74.1C541,99.4,550,91.1,563,90.1c4.2-.3,10.7.2,14.7,1.8,1.7.6,9.8,7.5,10,7.5,5.6,0-3.9-8-4.3-8.3C580,88.8,573,84.6,569,84.2c-12.2-1.3-21.6,6-30,15.1-19.5,21.1-23,53.3-43.3,75-19.4,20.7-48.2,25.4-74.2,34.8-10.1,3.6-16.8,7.2-22.4,17.3-2.1,4-2,5.8-2.9,12.3-1.1,7.5-6.8-.5-7.6-2-4.1-7.4-7.7-13.3-5.4-21.6,4.3-15,8.9-23.4,11.8-39.6,6.6-36.7,23.4-58.7,51.6-82.1,28.4-23.5,55-51.1,92.2-59.9,13.4-3.1,27.5-2.3,39.9,4.7,7.5,4.2,11.5,8,12.8,16.6.4,2.5-.3,22.8,1,23s2.1-2.2,2.7-5.7c6.1,1.6,21.6,0,26.2,5,5.3,5.8.6,12.9,3.5,19.8,2.2,5.3,9.5,5.7,13.2,10.1,4.7,5.6,5.7,14.9,8.4,21.6,6.8,16.1,15.3,31,16,48.9.3,8.2.2,16.5-4.1,23.6-1.3,2.1-12.8,20-12.8,23C646,236,650.4,273.8,650.5,276.9Z" transform="translate(-8.37 -14.42)"/><path d="M581.5,409.3c1.1,0,8.6-21.2,7.5-25.2-5.2,6.2-8.9,12.2-10.9,2.3-1.3,1.9-12.2,18.5-14.8,14.9,2.3,3.1,6.7-31.2,3.5-28.8,4.8-3.6,4.5,17.7,4.1,19.4,4.5-5.9,8.1-15.9,10.3-3.7,2.1-2,5.1-7.1,7.5-8.4,3-1.4,4.2,29.5-7.2,29.5Zm19.6-108.7c-.2,4.8,24,5,25.3,16.3,1,8.3-3.7,1.6-7.9,5.4-6.6,6-11,4.7-14.2.3-1.7-2.2-6.5-7.9-3.9.4-1.7-.3-21-.5-27.1,2.8-7.2,1.4-18.1,4.1-18.9,4.3-13.3,3.1-19,3.2-24.1,12.4-.5,1-4.8-2.8-6.2-2.7-1.6.1-4.2,2.1-5.5,3.5-2,2.1-2.9,7.2-5.9,7.5-8.3,1.1,6.2-12.1.9-16.8-4.7-4-17.3,5.8-17.8-.5-.2-2.9,16.2-11.9,24.5-18.9.2,0,11.9-.8,14.8.5,3.1,1.4,9.3-5.2,10.3-2.9,1.8,3.7,7.6-2.6,11.1-5.4h1c1.1,0,12.2-.1,12-2.6,0-.4-16.9-.8-19.6-2.6-8.7-5.8-.3-10.7-2.9-13.4-4.2-4.1-4.8,8.4-4.3,9.9,1.3,3.7,5.4,6.5,9.6,7.8-2,1.8-4.2,3.5-6.2,2.1a6.62,6.62,0,0,0-8.2.4c-1.7,1.3-11,1.6-14.1,1.4-5.1-.3-29.6,18.2-31.2,23.2-3.4,10.7,13.5,1.3,16.3,7,1.5,2.9-6.5,15.1,3.3,15.1,2.1,0,7.9-8.8,10.4-10,3-1.3,2.8,4.3,6.6,3.1,1.9-.6,4.9-7.6,6.4-9,6.2-5.5,18-7,25.9-9.1,1.2-.3,13.3-.5,17.1-3.2a152.17,152.17,0,0,1,19.1-1.6c-5,2-13.4,6-14.9,6.2-4,.9-19.7.2-19.7,2,0,2.7,17-.3,19.8.7,2.4.9,8.6-2.9,15.8-6.4-2.1,3.2-4.3,7.9-5.3,9-4.4,4.2-12.7,5.7-18.6,6.6-4,.7-24.3-6.4-25.8-6.6-5.8-.5,18.3,9.6,21.5,9.6,7.3,0,15.7-.8,21.8-5.3,1.6-1.2,10.3-11.1,10.3-15h.2a19.67,19.67,0,0,0,3.8,2.6c2.1,1.2,1.2,2.4,4.3,2.4s5.3-4.6,7.5-5.3c3.6-1.2,5,1,8.8-.6-.2.1,4-6.1,3.8-5.1C632.8,307.7,601.4,295.4,601.1,300.6ZM536.4,237c.3,0,2.1-.4,2.3-.4,3,0-13.9-9.2-18.3-10-5.8-1.1-29.3-1.2-34.4,6.7-1.4,2.1,3.9-.7,9.6-1.4-2.6,2.5-7,8.9-4.8,9.8,4,1.8,18.5,7,22.9,7,5.8,0,24.3-1.7,24.2-9.6.2-.3-.5-1.1-1.5-2.1Zm-30.9-6.2c-3.5,6.3-3.2,10.4-1.1,12.7-4.3-1.5-7.7-.7-8.7-4.2C495.5,238.3,501.1,230.7,505.5,230.8Zm11.2,14.8c3.9-1.8,8.5-6.9,5.1-14.5A38.9,38.9,0,0,1,526,233c2.9,2.8,6.2,6.3,6.2,7.2C532.5,242.4,524.8,246.6,516.7,245.6Zm89.7-22.1c-4.4,1.3-10.1,3.3-13.2,6.9-.5.6-7.5,9.3-2.9,9.3.4,0,.2-2.5,2.7-2.1,1.5.3,1.3.7,1.6,1.1,2,2.5,10.7,3,11.7,3,1.3,0,18.6-2,21.3-8.9.8-2.1-5.7-7.5-2.8-7.3s7.1,3.7,6.2,1c-2.8-7.7-22.6-3.6-24.6-3Zm-10.1,9.2a12.11,12.11,0,0,1,2.2-2.3,10.54,10.54,0,0,1,1.1-.7,10.43,10.43,0,0,0,5.8,9.4,16.25,16.25,0,0,1-7.2-1.4c-2.1-1-1.9-3.3-1.9-5Zm26.5.7c-1.5,2.5-3.7,3.1-7.3,3.9,2.1-2.3,1.9-8,.6-10.7C616.9,226.4,626,227.9,622.8,233.4ZM450.9,376.6c-3.8,0,4.1-16.2,4.5-18.4.5-3.2-4.3-23.9-1.3-23.9C459.4,334.3,459.1,376.6,450.9,376.6Z" transform="translate(-8.37 -14.42)"/><path d="M576.9,430.1c1.4,2.7-31.3,6.1-35.3,5.3-13.7-2.8-27.7-7.9-40.4-13.5-15.8-7-28.6-18.6-42.2-29.3-4.2-3.3-11.2-6.2-12.9-11.7-.7-2.1,1.5-10.2,1.7-13.2,2.8-2.4,4.3-4.3,3.3-5-2.3-1.6-28.8,20.9-32,24-8.6,8.2-20.2,12.2-31,17.1-2.5,1.1-4.9,2.3-7.4,3.5-10.3,4.8-28.2,20.1-1.2,5.9,5.1-2.7,10.2-5.2,15.5-7.5,12.4-5.6,19.4-8.1,29.4-17a80,80,0,0,1,12.1-7.7c4.3-2.2,4.8,1.4,5.2,2.4,1.3,4.5,7.2,6.1,10.5,9,9.2,8.2,20.3,18,30.7,24.5,18.1,11.5,46.8,26.2,69,26.2C554.7,443.1,579.1,434.5,576.9,430.1Z" transform="translate(-8.37 -14.42)"/><path d="M598.5,433.7c-.6,0-9,12.9-10.7,14.9-4.5,5.2-10,7.9-16.4,10.5-14.7,6-31.3,1.3-45.3-4A203.1,203.1,0,0,1,474.3,427c-4.1-3-37.8-34.5-37.2-34.9-6.6,4.4,43.4,44.7,48.1,47.6,20.9,13.3,49.1,28,74.6,28h0c11.5,0,20.6-5.5,28.6-13.4C589,453.9,604.7,433.7,598.5,433.7Z" transform="translate(-8.37 -14.42)"/><path d="M654.1,370.6c-2.7-.7-32.6-6.6-32.6-2.6,0-3,48.2,17.9,55.1,21.9a17.36,17.36,0,0,1,4.5,4.5c9.2,10.7,7.3-3.6-1.7-11.4C672.4,376.5,663.3,373,654.1,370.6Z" transform="translate(-8.37 -14.42)"/><path d="M1323.8,416.9c-2.4,3.3,16.7-3.5,18.7-4.3,2.9-1.3,24.5-9,24.5-12.9,0-1.5-28.9,10.6-31.4,10.6,0,0,6.8-8.4,7.3-8.8,5.9-6.4,11.9-12.5,17.7-18.9,11.7-13.2,21.7-28.6,27.5-45.3,13-37.1,15-78.5,23.6-117,6.5-29.2,15-61.5,27.9-88.4,8.9-18.7,17.3-41.2,29.5-57.7s31.8-25.4,50.9-32c22.9-7.9,45.9-11,67.7,1.1,3,1.6,35.7,22.4,35.1,24.7,2-6.2-23.1-22.9-26.8-25.4-17.3-11.6-34.2-15.1-54.5-12.1-21,3.1-45.6,10.4-61.9,24.5-17.9,15.3-29.9,37.8-39.7,58.9-30.7,66.2-34.3,139.8-53.8,209.2-10.5,37.6-40.1,63.2-62.3,93.8Zm159.9,52.5c27,30,78.4,58,119.7,45.8,17.9-5.2,31.1-18.1,39.3-34.5,6-11.9,10.8-24.8,12.8-38,.7-3.9,3.9-24.5-1.2-26.8,2.7,1.3-1.3,27.8-2,30.6-2.5,11.2-7.5,21.9-12.8,32-8.9,17.2-22.9,29-42.1,32.5-21.7,3.9-44.7-2.5-64.4-11.6a154.63,154.63,0,0,1-30.5-18.4c-1.7-1.4-20.4-17.7-20.6-17.4C1481.3,465.1,1483,468.2,1483.7,469.4Zm138-164.2c-.2-.9-1.5-5.4-2.9-3.7a5.86,5.86,0,0,0-.4,2.9c-6.7-.8-13.6-4.5-20.4-4.1-3,.1-5.6,1.8-8.6,1.7s-6.1-2.2-9.1-2.3c-6.5-.2-13.6,3.5-19.8,5-3.5.9-21.7,2.1-21,6.4-.5-3.3,12.1,1.8,13.5,2.7,3.6,2.2,6.7,5.1,10.4,7.4,9.6,5.9,14.6,7.4,25.4,6.3,3.1-.3,8.4.4,11.3-.5,5.4-1.8,6.7-6.6,9.6-11.2C1610.7,314.1,1621.3,303.1,1621.7,305.2Zm-55.7.6c3.8-1.1,8.3-2.6,12.3-2.5,4.9.1,8.9,2.7,13.7,2.4,6.4-.4,15.9-3.6,22.5-.1-8.6,1.6-16.3,6.1-25.3,6.1-11.4-.1-24.2-2-35.7-2.8,3.3.1,9.3-2.3,12.5-3.1Zm25.4,8.8c-.4,1.4-1.1,1.8-2.2,1.2C1588.4,314.8,1591.3,314.3,1591.4,314.6Zm14.5,1.5c-3.1,6.1-4.2,5.1-10.4,5.6-5,.4-11.9,2.6-16.8,2.3-8.1-.4-18.4-7.9-24.8-12.7,1.4,1.1,14.4-.2,18,.3,5.1.8,12.9,3.4,16.2,4.1.4.1,1.1,2.2,3.3,2.2,2.5,0,.7-3.6,1.6-3.9,1.4-.5,17.2-3.4,17.3-4-.6,2.3-3.3,4.1-4.4,6.1ZM1590,329.7c2.2.3,2.6,1.1,1.1,2.3C1589,332.3,1590.3,330.1,1590,329.7Zm-.3-1.5c-2.8.8-1.4,7.8,2.9,5.8C1596.2,332.2,1592.3,328.4,1589.7,328.2Z" transform="translate(-8.37 -14.42)"/><path d="M1586.8,340.6c.9.1,11.1,0,10.3-2.3-1.3-3.8-19.5,3-21.4,3.1C1579.2,341.3,1583.2,340.1,1586.8,340.6Z" transform="translate(-8.37 -14.42)"/><path d="M1577.5,269.7c-6.3,2.7-13.5,3.7-15-4.9-.5-3.1.9-8.5,4-10.2,1.5-.8,6.7,1.1,7.2.2,1.3-2.3-5.1-3.4-6.1-3.3-5.5.5-7.9,7.8-7.6,12.5s2.7,8.7,7.5,9.8c2.2.4,13-1.4,13.1-3.9a2,2,0,0,0-3.1-.2Z" transform="translate(-8.37 -14.42)"/><path d="M1615.9,256.7c-1.6-8.3-7.8-1.1-9.1-1.7,3.1,1.4,3.4-2.1,6,1.5,1.5,2.1,0,7.4-1.1,9.2-3.3,5.6-6.4,4-12.1,3.4,0,0,6.5-2.1,6-1.5.8-1,6.1-7.2-1-4.5.9-4.7-.9-10-2.3-14.3-.8-2.2-2.9-12.3-4.7-13.6,0,0,1.1,10.9,1.4,11.7,1.1,3.9,5,10.3,3.1,14.8-5.8,13.2-25.4-2.8-30.8,2.8-4.6,4.8,3.5,3.4,5.5,3.6,4.1.4,8.7,1.6,13,2.2,11.3.9,29.8,5.4,26.1-13.6Zm-50.5-75.6c6-1.2-4.3-6.4-6-6.6-1.1-.2-4.1,1.6-5.8,1.6-2.9,0-7.9-2.8-11.2-3.4a53.23,53.23,0,0,0-16.9.1c-1.2.1-11,3-11.7,2.6,2.9,1.6,10.5-.9,13.8-1.3,6.8-.8,12.1-.8,18.7,1.7,2,.8,4.6,2.8,6.5,3.1,1.6.3,4.7-.1,5.5.1.5.1,1.6-2.1,2.8-1.8C1564.5,178.1,1558.9,182.3,1565.4,181.1Z" transform="translate(-8.37 -14.42)"/><path d="M1710.8,409.8c-12.4-25.1-24.4-51.1-29.5-78.7a417.15,417.15,0,0,1-6.6-90c.3-9.1.2-18.2,1-27.3.7-7.4,2.9-14.3,3-21.8.1-5.3-1.4-8.6-2.1-13-1.3-9-.9-18.4-2.2-27.5-2.4-18.4-6.2-37.7-14.8-54.2-4-7.7-9.2-15.1-16.3-20.1-.9-.7-16.4-9.2-17.2-6.3.5-2,17.9,12.6,18.7,13.5,8.6,9.9,14.3,22.4,18.2,34.8,4,12.6,6.1,25.7,7.3,38.9.5,5.5,2.6,14.9,1.1,20.4-1.4,5.1.2,3.1-5.4,4.8-2.6.8-6.2.9-8.8,1.1,3-15.7-3.5-37.7-7.8-53.1-.7-2.5-12.2-29.6-17.2-22.5-2.5,3.5,9.3,19.9,11.1,23.5,6.2,13.5,11.5,32.1,10.2,46.8-6.8-7.7-17.2-9.1-26.6-6.4-4.6,1.4-8,4.6-12.3,6.3a8,8,0,0,1-5.8,2.9c-.8-1.3-1.5-2.5-2.4-3.7-4.1.4,0,6.4,2.3,7,3.4.9,9.8-5.4,12.7-6.8,8.4-4,21.4-7.1,29.1.3,8,7.6-8.6,6.3-14.9,6.7-9.1.7-20.4.1-29.1,3.3-8.1,3-12.7,6.7-22.5,5.3-5.4-.8-7.8-3.4-12.6-5.3-9.3-3.9-22.6-3-32.7-3.7-12.5-.9-26.3-4.5-38.7-3.4,18.1-20.9,40.3-36.2,61.8-53.1,8.3-6.5,16.5-13.1,24.9-19.5,1.2-1,14.6-9.2,14.6-10.1-.2,5.8-16.2,17.2-19.9,20.4-5.4,4.8-49.8,37.7-46.6,42.1,6.6,9.2,63.9-47.5,71.7-46.6,2.6.3-15.5,19.5-15.6,19.4,4.1,5.5,23.1-12.2,25.2-14.3,4.8-5.3,6.7-14,11.1-18.6-6.8,7.3-11.9,21.7-22.8,24.4,4.5-1.1,20.6-30.7,16.8-31.5s-24.5,22.8-28.3,26a214.1,214.1,0,0,1-21.1,15.3c-2.2,1.3-9.9,4.2-11.1,6.3,1.1-1.8,59-48.2,51.4-54.6-2.9-2.6-30.3,19.4-34.6,22.7-15.9,12.1-33.2,22-49,34.3-17.4,13.5-34.5,29-45.5,48.2-13.5,23.7-12.9,43.8-7.7,69.6,7.7,38.2,25.2,75.1,24.1,114.7-.8,26.5-7.3,53.3-21,76.1-5.4,9.1-12.2,17.3-19.1,25.2-1.7,2-8,11.4-10.4,11.9,8.7-2,20.3-18.7,25.3-25.4a146.67,146.67,0,0,0,22.3-44.1c.9-2.7,2.6-15.3,5.1-16.1s9.8,6.4,11.6,7.8a44.53,44.53,0,0,0,16.9,7.6c1.7.3,16.3,4.8,16.8,4.5,2.6-1.7-15.5-7.2-17.5-7.8-9.1-3.1-15.5-8.3-22-15.1-8.3-8.6-3.7-20.1-3.7-31.6a172,172,0,0,0-3.8-36.5c-9.3-42.5-37.7-93.4-11.8-135-.5,8.1.3,20.7,6.5,27,6.6,6.7,19,5.4,27.8,5.8,13.9.7,28.5.2,42-3.6,10.4-2.9,11.3-7.1,16.3-15.7,3-5.3,7.7-11.5,14.2-7.1,4.9,3.3,3.7,12.4,7.2,16.7,9.8,11.9,40.9,7.4,54.2,4.2,0,17.9-4,36.7-5.2,54.7-1.1,16.5-7,26.3-16.3,39.4-19.1,26.9-35.2,76.2-79.4,56.4-14.7-6.5-30.1-17.6-40-30-1.7-2.2-4.6-8.6-8.5-6-6.9,4.7,6.5,13.8,9.1,15.4,14.9,9.4,30.2,23.8,47.9,27,25.4,4.7,43.3-7.7,55.4-29,3.5-.9,3,33.3,1.8,36.4-2.1,5.3-7.6,9.6-10.6,14.4-1.6,2.6-2.3,6-4.1,8.5-1.3,1.7-4.3,2.8-5,4.9-.4,1.6,6.1-2.7,6.8-3.5,2.8-2.9,3.6-7.5,6.4-10.6,2.1-2.3,7.8-7.4,11-7.5,5.3-.2,10.1,5.4,14.4,8.8,9,7,16.6,6.5,27.6,8.6a59.37,59.37,0,0,1,13.1,3.7c2.5,1.2,5.3,4.7,8.4,4.6,1.2,0-7.4-7.1-8.5-7.6-4.5-2.2-9.8-3-14.6-3.9-10.4-2-17.2-2.7-26-9.1-13.8-10-15.3-17.3-16.1-33.7-.7-13.5-.3-22.6,6.6-34.3,11.8-19.7,21.9-32.6,24-56,.8-8.9.9-17.9,1.8-26.8.7-6.4.4-15.7,2.4-21.8,1.4-4.2.2-2.2,3.4-5.2,2.6-2.5,5.8-3.5,8.4-6.3-1.3,46.2-2.8,92.3,10.9,136.9,5.6,18.4,13.6,35.4,22.2,52.5a95.09,95.09,0,0,1,9.4,29.5c.4,2.5,3.8,16.6,2.1,18.7.8-1-9.8-15.3-12.4-13.8,1.6-.9,13.7,30.4,18.9,28.6,6.4-2.2-8.1-54.3-10.9-59.6ZM1544,192.3c-3.4-2.7,3.5-.5,4.7.1a11.52,11.52,0,0,1,4.7,4.3c3,5.6-.2,6.8-6.7,8.5-4.9,1.2-17.4,2.4-21.1-2.2s1.5-9.1,6.5-10.2c-4.8,4.5-1,12.1,5.2,12.5,5.6.5,12.3-8.5,6.7-13Zm32.6,13.9c-1.8,15.2-13.2,18.2-26.2,19.5-11.5,1.2-26.8,3.1-38.4,1-12.9-2.4-21.2-24.3-12.3-35.3,6.8-8.5,26.3-3.1,35.7-3-1.7.2-20.2,5.1-18.2,10.4.7,1.7,6.7-2.9,7.8-3.5-4.6,4.7-5.9,4.1-1.8,8.3,3.9,4.1,14.4,4.7,19.5,4,2.9-.3,13-2.3,14.9-4.9,2.7-3.9-.3-3.7-3.8-8,.9.4,9,7.6,10.2,6.1,2.4-3-18.1-11.7-19.8-12.1,12.5.3,34.8-.8,32.4,17.5Zm36.6-12.2c-9,17.2,27.1,5.6,8.6-3.1,9-1.4,18.5,9.1,6.7,13.1-7.6,2.6-30.5-1.4-15.3-10-3.8,7.3-1.3.8,0,0Zm11.3,30c-8-.4-15.5-1.3-20-8.6-5.1-8.3-5.6-18.9,4.7-22.2-.2.1-7,7.4-5.2,7.8a13.12,13.12,0,0,0,2.8-2.4c-2.2,9.3,12.1,9,18.7,7.9,5.4-.9,16.2-3.4,10.8-9.9a6.29,6.29,0,0,0,4.2,1.2c.3-.5-9.9-8.1-11.3-8.7a227.76,227.76,0,0,1,23.3-1.5c-1.1,6.1-.4,12.5.4,18.6.3,2.3,3.8,12.3,2.9,13.9-3.2,6.1-25.3,4.1-31.3,3.9Zm46.4-21.1a21.38,21.38,0,0,1-12.4,16.6c-1.1-5.9-8-26.6-1.8-31.8,1.7-1.5,12.5.4,14.2,2.5C1672.8,192.5,1671.3,200.2,1670.9,202.9Z" transform="translate(-8.37 -14.42)"/><path d="M931.9,453c-5.1,0-11.3-3.5-14.6-6.5-2.2-2.1-12.3-8.1-12.8-11.1-1.1-5.4,7,.7,8,1.4,6.7,4.9,7,5.8,14.2,10.1,3.6,1.3,11.8-14.2,25.5-15.5,8.5-.8,16.9,2,25.4,1,2.1-.2,11.6.2,4.3,2.6-11.8,3.9-26.9-5.2-37.2,2.3-4.5,3-9.8,15.5-12.8,15.7ZM893.4,339.3c-4.1,0,4.3-2.9,4.9-3.5.2-.2,11.5-2,12.6-2.1C923.7,333.2,895.4,339.3,893.4,339.3Zm4.5-143.9c-6.8,0,9.3-11.4,11-12.1,4.8-1.7,28.2,2,33.7,4.2,5.2,2.3-17.3-1.2-20.2-1.4-4.9-.3-9,1.1-13.5,3-2.6,1.3-8.3,6.3-11,6.3Zm-95.4,27.3c-6.5,0,11.6-13.2,13.5-14.2,4.5-2.5,25.4-12.6,27.4-1.8.3,2.1-12.2-.3-16.2,1a55.83,55.83,0,0,0-14.3,7.5c-2.6,1.5-7.7,7.5-10.4,7.5ZM938,202.6c-2-7.1-27.8-2.8-34.3,1.6-4.6,3.1-14.3,13.7-9.6,10.6,2.3-1.4,3.1.8,2.5,1.6-1,1.8,2.7,3,6.2,2.1,10.6-3,25.5-1,29.8-11.1a4.16,4.16,0,0,0-.1-2.2C937.1,205.4,938.9,205.9,938,202.6Zm-28.7,3.8c.3,5.3,3.5,7.4,6.8,7.4-4.7.7-12.4,1.2-15.5,1.8-.7-1,.3-5.1,2.2-6.4C904.9,207.7,906.5,206.2,909.3,206.4Zm15.9,4.9a21.51,21.51,0,0,1-6.5,2.1c3.8-1.1,6.8-4.6,4.9-8.5,1.8.1,4.1.3,6.3.4-1.7,1.9-3.6,5.3-4.7,6Zm-36.1,37.5c-2.4-4.7-3.7-12.5-7-19a52.15,52.15,0,0,1-4.7-17.8c-.3-2.4-1.7-1.8,4.6-6.4,4.8-3.5.3,4.5-.1,5.6-1,4,.4,9.9,2.5,15.1C888.2,234.9,893.6,257.7,889.1,248.8Zm-37.8-26.5c3-.2,6.3-2.7,4.3-2.7-4.2,0-15.5-2.9-21-2.1-4.1.7-11.6,3.6-15.4,5.3-3.3,1.5-11.7,9.7-2.6,11.4,1.4.3,1-.1,3-2,.9,4.1,3.8,4.7,11.5,3.3,5.1-1,18.5-3.1,24.9-9.3,1.5-1.1-2.3-3.2-4.7-3.9Zm-19.9,11.5c-10.4,1.3-6.5-.7-8.9-3.4,1-.9,6-5.1,6.7-5.5-3.7,16.6,20.2,3.7,11.6-2.7.9,0,2.7.2,4.8.2-.3.8.8,2.3,4.7,4.6-4.4,2.5-13.2,6.1-18.9,6.8Zm111.8,47.6a102.13,102.13,0,0,0-11.1,1.5c-5.3-.4-17.2,6.4-33.8,10.2-1.1.2-2.7,3.5-3.8,3.7-.9.1-3.8-1.3-4.7-1.2-10.8,1.5-24.2,5-31.7,9.3-4.9,2.9,1.2,2.4,3.1,3.8s5.5,2.2,6.8,4.2a37.87,37.87,0,0,0,2.6,2.9c6.3,6.5,12.6,13.9,22.9,12.1,19.1-3.6,27.7-3.5,36.7-19,1.5-2.5,7.2-11.9,8.6-14.6,4.5-7.2,13.9-13.9,4.4-12.9Zm-23.8,34.1c-6.3,5.2-17.3,8.1-25.1,8.7-4.6.3-9.1.7-13.2-2a17.3,17.3,0,0,1-4.8-5.3c4.7,2,8.8,3.4,10.2,3.4a71.44,71.44,0,0,0,39-12.3,18.62,18.62,0,0,1-6.1,7.5Zm-7.5-4.8c-7.4,2.2-18,6.4-25.8,5.6-8.7-.9-14.3-8-23-9.8-2.2-.9,18.9-2.8,27.9-4,8.4-1.1,16.1-4.2,23.8-7.4,7.9-3.3,17.9-9.4,26.8-9.2-9.5,9.9-16.1,20.7-29.7,24.8Zm44.2-10.4c-3.7,8.6-2.7-16.6-.5-22,1-2.6.8-9.7-3.6-9.1-2.6.3-1-2.3,2.5-3.3,5.8-1.6,3.9,10.3,2.3,14.1C955.3,283.6,957.5,293.6,956.1,300.3Z" transform="translate(-8.37 -14.42)"/><path d="M1097.9,403.6c-3.8-4.9-11.6-5.6-17.5-3.6a136.73,136.73,0,0,0-13.5-3c-6.3-1.6-12.9-1.8-19.3-3.5s-30.3-11.6-39.9-11l.1-.2c.4-.7,3.3-2.2,4.1-3.6,1.1-1.7,1-5.4,1-7.5,0-8.6-3.7-16.1-2.8-24.9,1.6-17,9.3-34.6,11.4-51.8,2.2-17.7,4.5-36.6,3.6-54.4-3-55.7-43.5-101.6-74.7-145.5-7.3-10.2-15.7-21-26.9-27.3-1.7-1-19.9-13.1-24.5-10.6,1.6-29.8-38.7-28.5-59.6-21.1C770.2,60.3,736.5,145.3,715,207.8c-12.2,35.3-29.2,76.6-22.5,114.6,1.8,10.3,13,20.5,16.4,30.2s3.7,19.2,2.6,29.2c-.3,3.6-7.2,30.8-5.5,41.4a98.92,98.92,0,0,0-11.9,7.5c-1.1.9-8.1,6.2-5.3,8.7s3.8-2.8,5.5-4c8.1-5.5,17-8.9,25.7-13.1.8,3.7-4.3,20.5-2.2,20.5,5.6,0,8.7-19.4,5.5-22.8-2.4-2.5-7.9-1.2-13.7,1.4,1.8-11.8,11.3-38,11.6-42,2-23.1-17.6-39-19.9-60.9-4.3-42.5,13.2-86.8,27-126.1,11.2-31.7,22.3-64.3,41.9-92.1,19.2-27.4,48.3-54.9,83-59.1,12.4-1.5,33.9-1.4,40.6,11.7,3.3,6.4-2.4,13.8.2,19.7,2.7,6.3,1.3-2.8,14.2-2.8,5.1,0,13.6,4,17.7,7,10.5,7.5,19.2,15.4,26.3,26,32,47.7,66.6,92.8,65.8,153.1a372.69,372.69,0,0,1-4.1,49.5c-2.2,14.8-8,30.2-8.1,45.2,0,7.1,3.3,13.8,3.3,20.7,0,9.7-8.4.9-10.1,4-2.4,4.3,2.1,41.7,10.6,41.7,3.9,0-2.1-14.7-2.3-15.7-1.4-6-2.1-10.6-.9-14.9,3.4,1.4,9.7,2.3,10.6,2.6,6.5,2.4,13.8,3.7,20.5,5.6,10.4,3.1,26.4,7.9,38,8.5-6.1,5.6-8.7,16.2-12.7,23.1-9.6,16.6-24.4,26.5-40.4,36.4-19.2,11.7-39,22.8-60.4,30.1a161,161,0,0,1-32.1,7.5c-2.7.3-15.5-.5-16.9,1-.7.8-4,4,0,4,44.8,0,86.2-22.2,122.8-46.3,15.4-10.2,26.4-22.2,34.6-38.7,3.1-6.3,6.2-16.7,14.6-17.3C1085.8,402.9,1103.1,410.6,1097.9,403.6Z" transform="translate(-8.37 -14.42)"/><path d="M851,336.6c14.3,13.9,30.5,35.3,52.6,35.3,18.5,0,32.9-15.2,43.8-28.5,2.6-3.1,13.5-14,13.7-3.8.1,3.7,5.1,32.4,7.1,23.9.5-2.2.9-19.7.5-27.3-.1-3.3,1.8-22.7,5.4-28.5,4.6-7.3,6.2-12.4,7.1-21,1-8.4,1.8-15.1,2.1-23.6,0-2.2-.3-12.1-1.4-15.9,1.3-2.3,2.5-4.3,3-5.1,3.6-5.3,5.1-9.6,3.8-16.1-1-5.5-2.9-18.6-8.7-19.9-6.1-1.3-13.5-2.1-14.9-18.9-1.4-18.4-21.1-23-32.3-36.1-9.8-11.4-13.1-24.3-16.7-38.4-1.2-4.5,0-12.7-4.1-15.4-2.5-1.6-14.6-2.8-13,0,2.7,4.8,3.7,9-9.8,7.9-4.8-.3-9.2-1.5-14-1.1-9.6,1-17.7,6-26.6,9.2-13.9,5.1-30,4.5-42.9,12.4-14.6,9-23.1,26.5-24.2,42.6-1.3,20.6,9.4,37,16.4,55.8,1.8,5,11.6,64.5,13,67.7,5.1,10.8,15.6,25.6,23.8,33.7,3.6,4.2,2.9,26.4,3.3,29.4,1,9.7,3.3,20.5,5.5,30.7,3.1,14.2,12.2,24.5,20.1,36.6,8.5,12.9,17.3,25.5,23.1,40a136.22,136.22,0,0,1,7.3,25.1c.8,3.9,1.7,29.5,4.7,29.5,6.7,0-4.3-45.2-6.6-51.6-5.2-14.6-13.4-27.5-21.8-40.3-7.7-11.6-15.4-23.2-19.4-36.7a93,93,0,0,1-3.7-27.7c0-3.1,2.7-18.6,3-25.4l.8,1.5Zm-28.7-39.2c-1.2-2.3-6.5-13.2-8.3-18.2-5-14-10.8-51.5-12.5-56-8-21.5-15.5-39.7-11.3-63.3,2.9-15.9,10.9-25,26.6-30.6,7.7-2.7,18.7-2.7,26.5-4.6,9.1-2.1,17.3-8.7,26-11.7,9.7-3.4,13.5-4.3,23.2-2.7,1.7.3,12.2,2.1,17.2,1.1,1.7,4.9,4,10.8,5.4,15.4a78.34,78.34,0,0,0,10.8,22.6c9.1,12.7,24.9,20,31.6,34.2,2.4,5.1,4.9,40.9,6.3,40.9,3,0,3.7-5.8,3.3-12.6,3.6,1.5,10.5,2.3,12.4,4,3.4,3,5.9,10.8,5.8,15.1-.1,3.5-16.1,26.4-10.4,26.4.4,0,1.3-1,2.4-2.4-1.1,13.8-1.1,38.3-2.5,42.2-2.6,7.4-7.2,13.9-11.9,20-.5.8-5.5,6.3-7.1,9.9a115.62,115.62,0,0,0-9,10.9c-9.4,11.8-21,25.7-36.4,29.2-19.8,4.5-35.5-12.5-48.1-25.1-14.5-14.4-30.5-26.2-40-44.7Z" transform="translate(-8.37 -14.42)"/><path d="M864.7,270.3c-3.3,12.9,5.6,15,10.6,13.9,7.8-1.6,12.9,6.6,20.2-.2,2.5-2.4,3.6-6,6.2-8.1,2.6-2.3,7.7-3.1,10.2-5.1,4.5-3.5,4.1-13.7-2.9-15.5-6.1-1.6-8.1,3.1-4.5,2.1,3.4-1,8.9,3,5.8,9.8-1.7,3.7-7.8,2.6-10.9,4.7-3.3,2.2-2.4,6.7-5.1,9.2-6.3,5.6-10.8-.5-17.8-1.6-2.7-.4-7.3,1.7-9.3-1.4C867.2,278,866.4,266.1,864.7,270.3Z" transform="translate(-8.37 -14.42)"/><path d="M1354.14,174.54c2.48-3.63,9.09,1.18,8.09-5.77-.63-4.35-12.07-14.66-14.64-19.46-13.71-25.6-14.84-55.28-26.12-81.56-9.06-21.11-33-44.26-57.45-45-6.27-.19-12.59,2.16-18.46,3.24-6.68,1.23-13.79-2.6-16.74-3.81a97.83,97.83,0,0,0-51.29-6.8c-28.77,4.17-53.86,21.73-70.73,45-15.32,21.11-26.2,49-36.15,73.09-8.16,19.74-16.1,49.3-11.09,70.33,1.58,6.62,6.44,12.2,7.66,18.55.91,4.76,0,10.13.59,15,1.71,15.24,11.37,26.42,12.84,41.51.51,5.2-.15,21.7,5.81,16.07,10.47-9.89,5.57-40,16.53-49.93-.4,6.77,2.25,12,2.64,17.88.43,6.64-4.86,28-6.92,33.77-.75,2.11-1.54,2.49-1.37,3.92.68,5.53,6.61,14.29,8.37,17.07,1.27,2,11.12-6.42,10.92-8.35-.63-6.2-10.4-43.56-3.74-47.1,2.83,12.51,3.22,25.31,5.32,37.92a81.62,81.62,0,0,0,4.42,17c.77,1.92,7.13,11.62,6.73,12.92-1.26,4.1-13.72,5.11-18.65,6.54-9,2.6-17.7,7.11-26.66,9.45-5.32,1.39-52.25,13.77-49.46,19.95,1.27,2.81,37.33-10.65,42.31-11.74-1.39,11.4,7.11,26.82,6,8.21-.65-11.13-.44-11.73,10.16-15.75,11.34-4.3,23.9-5.46,36-6.82-.84,8.35-2.16,13.59-4.52,21.67-.53,1.81-9.52,11.2-5.08,11.48,7.62.47,17-30.77,17.39-35.58,9.64,11.69,17,18.95,27.22,30.12,9,9.9,17.36,16.47,31,18.69,30.68,5,56.69-19,80.11-42.09,0,3.16,7.61,33.63,13.44,30.83,1.75-.84-5.94-23.31-5.93-27.27,8.71,3.56,15.49,5.94,23.29,11,4.25,2.77,12.92,8.55,14.57,10,1.28,1.14-2.61,13-3.76,16.5-2.37,7-13.89,32.94-18.75,44.75-6.23,15.16-27.05,44.61-33.75,47.6-13.22,5.92-43.06,20-76.66,16.14-28.21-3.25-54.85-16.52-61.72-22.37-13.76-11.72-16.08-2.17,1,7.2,12.83,7,36.06,17.75,58.93,19.6,14.57,1.17,76.13-3.33,93-26.81,2.32-3.22,15.26-21.18,24.49-41.36,4.51-9.87,17.93-39.26,20.18-47.11.51-3.8,6.62-10.46,8.43-8.38,8.18,9.4,7-2.56-.9-6-12.57-5.48-23.78-14.39-35.31-21.71-4.6-2.92-13.5-4.76-13.45-10.3.06-6.18,9.37-15.84,11.93-21.93,6.79-16.1,10.62-34.93,12.62-52.22,4.2,3-2,23.05-3.12,28.85s-3.8,17.3-5.16,23.11c-.57,2.44-2.69,4.41-2.59,6.15.22,3.55,5.2,9.05,8.65,11.23,2.25,1.42,13.9-18.64,13-21.65-2.74-9.67-4.3-31.07-3.82-44.67.14-3.82,7.08-3.95,7.87-17.18.64-10.92,1.24-25.55,10.88-30.24,11.65-5.66,11.58-11,19.95-14.3,3.64-1.44,10.83-.72,14.15-1,8.42-.69.47-8.64-5.27-14.42C1357.8,184.49,1352,177.62,1354.14,174.54ZM1106.51,314.62c-1.9-2.22-4.24-7.93-5.76-12.09a45,45,0,0,1,12.31,6.71C1111.6,311.27,1108.46,313.11,1106.51,314.62Zm6.64-9.14c-2.89-1.74-9.11-5.19-12.33-6.23.67-5.42,5.47-23.75,7.4-33.05C1108.94,277,1111.15,294.86,1113.15,305.48ZM1310.85,272c-.46,17.36,3.35,35.86,2.2,37.81-1.25,2.13-8.83,4.31-11.25,5.81C1304.53,305.78,1310.16,275.3,1310.85,272Zm4,40.87a103.77,103.77,0,0,1-9.61,14.82c-.32-.42-3.89-5.24-5.32-7C1303.77,318,1310.64,315.05,1314.83,312.84Zm6.08-85.44c-2.68,8.29-.2,22.73-5.51,29.31-2-5-5,1.49-5.37,2.76-4.94-1.75,4.25-30.65-3.56-18.33-6.19,9.76-4.65,30.17-7.35,41.6-7.13,30.19-29,60.19-38.84,68-16.51,13-38.24,34-60.75,32-19.16-1.68-25.86-14.21-38.36-27C1144,338.33,1126,323.52,1122,298.44c-1.84-11.6-.21-23.08-2.64-34.6-.44-2.14-1.6-17.16-5.67-16.12-3.65.92-.21,9.47-2.55,10.83-.07-1.26-1.44-6.69-3.64-3.48-.76-3.2-1.76-10.39-.24-13.28s8.08-5.42,10.4-8.17c7.17-8.48,11.62-29.23,12.66-18.55.69,7.14,2.73,20.28,2.07,30.65-.35,5.48-2.07,29,5.18,13,5.49-12.13,5.42-24.81,5.12-37.83,7,2.41,45.76,2.64,36.93-9.68.85,1,5.18,2.42,4.31-.36-1.09-3.54-5-6.19-8.14-7.51-9.34-3.91-23.26-.16-33.35-.17.13-6,3.33-8.14,12.45-6.46,5.59,1,8.43,3.17,14,2.21,4.14-.71,5-3.42,8,1.06,1.38,2.08,1.61,3.76,4.59,3.87,5.84.23-2.08-11.56-6.57-11.91a22.47,22.47,0,0,0-8.54,2.25,7.82,7.82,0,0,1-7.52-.33c-5.76-3.32-8.81-5-15.21-1.84,11.64-66.42,93.32-37.68,125.2-83.14,12.12,13.35,19.2,19.45,21.88,38.05,2,13.82,4.73,21.8,11.9,33.37a30.92,30.92,0,0,1,4.73,17.24c0,4.47-4.65,21.94-.09,25.22,7.24,5.22,9.14-16.46,14.48-15.49C1328.11,208.44,1322.38,222.85,1320.91,227.4Zm-162.18-8.91-1.76.31,1.76-.31.26-.05-.26.05c5.22-.93,9.76-7.4,6.59-12.42,5.29-.39,12.85,9.1,9.87,9.69-6.3,1.26-10.64,3.29-17,3.78-3.26.25-8.89-.09-11.63-1.63-5.21-2.92-4.16-4-4.18-10.73h6.28C1147.25,213.18,1152.5,219.6,1158.73,218.49Zm188.46-19c-4.83,3.4-9.46,13.8-16.77,9.35-3.86-2.35-2.71-6.5-8.07-7.74-6.19-1.43-6.14,8.83-9.07,5.49-4.88-5.57,1.08-8.63-.6-18.07-1.08-6-5.27-10-8.71-14.84-10-14.12-5.62-33.4-12.09-48.92-4.13-9.9-19.36-23.23-24-33-1.95-4.07-2.7,9.76-4.11,11.93a34.87,34.87,0,0,1-7.48,7.57,132.78,132.78,0,0,1-16.94,11.11c-30.07,17.52-70.86,10.67-91.11,42.8-16.66,26.44-6.12,60.36-10.5,68.29-2.35,4.26-1.4-3.72-2.76-11.52-1.3-7.42-2.16-18.88-2.64-26.4-.45-7.22-1.86-12.26-5.64-3.14-4.88,11.77-3.51,23.81-11.25,34.6-6.74,9.39-19.15,3.09-21.62,18.54-1.6,10-4.34,38.34-7.36,28.69-2.54-8.08-12.21-23.15-13-42.29-.35-8.17.49-14.17-3.09-21.62-4.89-10.18-7.91-19-6.52-30,4.71-37,21.06-66.56,37.41-99.77,19.36-39.34,61.19-66.24,105.64-58.08,10,1.83,22.73,1.57,30.53,8.46,2,1.74-.15,7.61,5.1,5.74.64-.22,6-4.95,7.54-5.88,16.55-10.14,36.15,4.71,48.42,15.17,37.17,31.73,23.52,95.26,54.79,118,10,7.28-25.7,1.87,4.4,28.26C1363.54,197.54,1352.67,195.67,1347.19,199.54Z" transform="translate(-8.37 -14.42)"/><path d="M1378.84,385.61c-2.42-.57-.59-.14,0,0C1379,385.66,1379.11,385.67,1378.84,385.61Z" transform="translate(-8.37 -14.42)"/><path d="M1156.64,218.86l-.34.06Z" transform="translate(-8.37 -14.42)"/><path d="M1157,218.81l-.31.05Z" transform="translate(-8.37 -14.42)"/><path d="M1157,218.8h0Z" transform="translate(-8.37 -14.42)"/><path d="M1160,218.26Z" transform="translate(-8.37 -14.42)"/><path d="M1159,218.44l.56-.1Z" transform="translate(-8.37 -14.42)"/><path d="M1159.55,218.34l.37-.06Z" transform="translate(-8.37 -14.42)"/><path d="M1282.33,197a36.44,36.44,0,0,0-23-5c-7.62.75-13.56,4.3-20.73,3.42-5.33-.66-10.84-5.44-16.23-.07-1.61,1.6-3.06,6.8-1.72,8.56,2.66,3.48,5.92-3.78,7.76-4.48,2.7-1,8.29,2.46,12.05,2.27,2.26-.12,6.66-2.75,8.64-3.38a40.48,40.48,0,0,1,24.78-.06c5.61,1.85,13.85,11.89,18,11.89C1298.78,210.11,1283.38,197.62,1282.33,197Z" transform="translate(-8.37 -14.42)"/><path d="M1193.37,227.91c2.47-5.61-.51-15-2.44-13.37-1.56,1.33,1,6.23-.61,12.91-.53,2.15-1.85,10,.52,12.73S1190.89,233.54,1193.37,227.91Z" transform="translate(-8.37 -14.42)"/><path d="M1281.15,212.48c-13.41,0-22-12.29-36.66-9.63-4.68.84-12.26,3.11-15.4,6.83-1,1.19-6.26,7.1,1.36,3.9-9.13,9.27,26.44,13.65,32.19,12.52,6.59-1.3,10.57-6.9,13.65-7.76C1277.57,218,1288.17,212.48,1281.15,212.48ZM1257,222.41c-7.27-.15-15.46-.5-21.82-4.13-3.51-2,3.44-10.22,9.14-11.32-10,14.36,25.78,19.32,18.14,2,2.52,1.25,5.62,3.49,8.78,5.16C1277.1,217.18,1259,222.45,1257,222.41Z" transform="translate(-8.37 -14.42)"/><path d="M1241.5,309.07c-2-1.58-5,1.45-7.89,1.33-5.57-.22-12.22-2.87-17.83-2.67-4.53.17-8.91,1.65-12.86,1.66s-8.84-1.67-12.86-1.9c-5.29-.3-10,3-15.29,2.79-4.14-.17-6.1-4.1-10.06-1.94-5.34,2.91,2.69,2,3.27,2.31,2.6,1.41,4.85,9.48,7.06,12a18.34,18.34,0,0,0,7.62,5.68c7.54,3.22,15.21,3.57,23.17,3.67,6,.07,13.26-.57,18.33-4.35,4.29-3.19,6.2-11.13,10.79-13.88C1241.64,309.79,1246.86,313.43,1241.5,309.07Zm-22.24,17.11c-5.88,2.83-17,3.63-26.77,2.06-8.45-1.36-11.39-4.3-15.9-11.65,7.23,3.56,14.17,3.4,25.48,3.4s20,.61,25.15-1.88C1224.72,321.24,1223,324.38,1219.26,326.18Zm-41.82-13.59c2-.36,8.79-1.5,10.8-1.82,4.35-.7,8.66,3.63,15.55,2.8,3.38-.41,8.89-2.46,12.47-2.8,4.52-.44,8,1.57,12.38,2.42C1213.11,319.62,1195.88,318.17,1177.44,312.59Z" transform="translate(-8.37 -14.42)"/><path d="M1166.78,412.12c-.07-.48-.14-1-.2-1.4,0,.29.11.73.2,1.4Z" transform="translate(-8.37 -14.42)"/><path d="M1166.78,412.12c-.37-2.66-4.11-19-10-15.8-3.88,2.11,4.23,8.84,5.24,11.86,1.5,4.46.63,15.7,6,17.95s-1-12.32-1.27-14l.13.94C1166.89,412.94,1166.85,412.66,1166.78,412.12Z" transform="translate(-8.37 -14.42)"/><path d="M1166.55,410.5l0,.22Z" transform="translate(-8.37 -14.42)"/><path d="M1166.55,410.5c0-.24,0-.3,0,0Z" transform="translate(-8.37 -14.42)"/><path d="M1234.33,418c-1.2,2.74-9,12-3.08,12,5,0,7.61-14.68,9.32-17.94.8-1.53,6.12-7.07,6-7.81-.12-1.08-.28-4.5-2.85-2.47h0C1237.75,406.49,1237.17,411.52,1234.33,418Z" transform="translate(-8.37 -14.42)"/><path d="M1183.09,286.43c3.09.92,6.32-1.14,8.77-.63,4.08.83,5.82,5.09,10.82,5.11,4.23,0,6.18-3.32,9.74-4,2.62-.52,5.26.16,8.29-.42,9.54-1.82,11.15-7.37,9.11-16.09-.69-3-5.22-15.3-6.9-8.73-1,4,3,2.6,4.33,10,1.09,6,1.44,10.83-5.66,11.74,4.51-5-5.21-4.53-6.86-3.93-3.43,1.27-3.6,5.55-9.29,6.93-10.66,2.58-12.32-9.6-20-7.83h0c-1.94.89-1.73,3.33-1,5-7.58-2.72-7.18-7.86-6.22-13.48,1.25-7.37,5.13-3.09,4.55-7.6-.68-5.23-5.33-.19-6.63,4.8C1174.07,275,1173.22,283.47,1183.09,286.43Z" transform="translate(-8.37 -14.42)"/></svg>